<svg width="241" height="104" viewBox="0 0 241 104" fill="none" xmlns="http://www.w3.org/2000/svg">
<g opacity="0.6">
<path fill-rule="evenodd" clip-rule="evenodd" d="M195.855 9.95062L189.211 3.71975C188.773 3.30857 188.084 3.33034 187.672 3.7694C187.261 4.20802 187.283 4.89711 187.722 5.30829L194.365 11.5392C194.804 11.9503 195.493 11.9285 195.904 11.4899C196.316 11.0513 196.293 10.3618 195.855 9.95062Z" fill="#CD0A24"/>
<path fill-rule="evenodd" clip-rule="evenodd" d="M189.466 11.6973L195.698 5.05391C196.109 4.61528 196.087 3.92621 195.648 3.51503C195.21 3.10342 194.521 3.12563 194.109 3.56425L187.877 10.2076C187.466 10.6462 187.488 11.3353 187.926 11.7465C188.365 12.1581 189.054 12.1359 189.466 11.6973Z" fill="#CD0A24"/>
<path fill-rule="evenodd" clip-rule="evenodd" d="M149.458 10.817H165.082C165.683 10.817 166.171 10.3296 166.171 9.72805C166.171 9.12696 165.683 8.63911 165.082 8.63911H149.458C148.857 8.63911 148.369 9.12696 148.369 9.72805C148.369 10.3296 148.857 10.817 149.458 10.817Z" fill="#CD0A24"/>
<path fill-rule="evenodd" clip-rule="evenodd" d="M8.47709 52.6777L1.83373 46.4468C1.39511 46.0356 0.706034 46.0574 0.294418 46.496C-0.116763 46.9351 -0.0945487 47.6242 0.344073 48.0353L6.98743 54.2662C7.42605 54.6774 8.11513 54.6556 8.52631 54.217C8.93792 53.7784 8.91571 53.0889 8.47709 52.6777Z" fill="#CD0A24"/>
<path fill-rule="evenodd" clip-rule="evenodd" d="M2.08855 54.4244L8.32029 47.781C8.73147 47.3424 8.70969 46.6533 8.27107 46.2422C7.83244 45.8305 7.14337 45.8528 6.73175 46.2914L0.500014 52.9347C0.0888332 53.3734 0.110612 54.0624 0.549233 54.4736C0.987855 54.8852 1.67693 54.863 2.08855 54.4244Z" fill="#CD0A24"/>
<path fill-rule="evenodd" clip-rule="evenodd" d="M190.695 71.6413L184.052 65.4104C183.613 64.9992 182.924 65.021 182.513 65.4601C182.101 65.8987 182.123 66.5878 182.562 66.999L189.205 73.2298C189.644 73.6414 190.333 73.6192 190.745 73.1806C191.156 72.742 191.134 72.0529 190.695 71.6413Z" fill="#CD0A24"/>
<path fill-rule="evenodd" clip-rule="evenodd" d="M184.306 73.3879L190.538 66.7446C190.949 66.306 190.927 65.6169 190.489 65.2057C190.05 64.7941 189.361 64.8163 188.949 65.2549L182.718 71.8983C182.306 72.3369 182.329 73.026 182.767 73.4372C183.206 73.8488 183.895 73.8266 184.306 73.3879Z" fill="#CD0A24"/>
<path fill-rule="evenodd" clip-rule="evenodd" d="M115.182 11.1611L116.125 10.6158L111.551 2.70493C111.355 2.36823 110.996 2.1609 110.607 2.16134C110.218 2.16134 109.858 2.36953 109.664 2.70667L100.54 18.5384C100.346 18.8751 100.346 19.2907 100.541 19.6274C100.736 19.9641 101.096 20.1714 101.484 20.171L110.62 20.1635L119.756 20.1592C120.145 20.1588 120.505 19.951 120.699 19.6143C120.894 19.2772 120.893 18.8621 120.698 18.5249L116.125 10.6158L115.182 11.1611L114.239 11.706L117.869 17.9822L110.618 17.9857L103.369 17.9918L110.609 5.42856L114.239 11.706L115.182 11.1611Z" fill="#CD0A24"/>
<path fill-rule="evenodd" clip-rule="evenodd" d="M167.602 40.8559L168.544 40.3105L163.97 32.3997C163.775 32.063 163.416 31.8556 163.027 31.8556C162.638 31.8561 162.278 32.0643 162.084 32.401L157.524 40.3162L152.96 48.2327C152.765 48.5699 152.766 48.985 152.96 49.3221C153.155 49.6588 153.515 49.8661 153.904 49.8657L163.039 49.8583L172.176 49.8539C172.565 49.8535 172.924 49.6457 173.118 49.3086C173.313 48.9719 173.313 48.5568 173.118 48.2197L168.544 40.3105L167.602 40.8559L166.659 41.4008L170.288 47.6769L163.038 47.6804L155.789 47.6865L163.029 35.1233L166.659 41.4008L167.602 40.8559Z" fill="#CD0A24"/>
<path fill-rule="evenodd" clip-rule="evenodd" d="M41.254 68.3802L42.3059 68.6611L44.6654 59.8325C44.766 59.4566 44.658 59.0554 44.3827 58.7806C44.1074 58.5057 43.7062 58.3986 43.3308 58.4996L34.5095 60.8726V60.8722L25.6844 63.2435C25.3085 63.3441 25.0149 63.6381 24.9148 64.014C24.8141 64.3899 24.9222 64.7906 25.1974 65.0655L31.6626 71.5193L31.6622 71.5189L38.1261 77.9767C38.4014 78.2515 38.8026 78.3591 39.178 78.2581C39.5539 78.157 39.8471 77.8634 39.9477 77.4875L42.3059 68.6611L40.202 68.0992L38.3308 75.1028L33.2015 69.9783L33.2011 69.9778L28.0713 64.8573L35.0745 62.9756H35.0749L42.0741 61.093L40.202 68.0988L41.254 68.3802Z" fill="#CD0A24"/>
<path fill-rule="evenodd" clip-rule="evenodd" d="M115.146 91.0317H114.057C114.057 92.6485 113.405 94.1025 112.346 95.1631C111.285 96.222 109.832 96.874 108.215 96.8745C106.599 96.874 105.145 96.222 104.084 95.1631C103.025 94.102 102.373 92.6485 102.372 91.0317C102.373 89.4149 103.025 87.9613 104.084 86.9007C105.145 85.8418 106.599 85.1902 108.215 85.1898C109.832 85.1902 111.286 85.8418 112.346 86.9007C113.405 87.9613 114.057 89.4149 114.057 91.0317H116.235C116.235 86.6015 112.645 83.0124 108.215 83.0119C106.004 83.0111 103.992 83.9109 102.544 85.3605C101.094 86.8084 100.194 88.8203 100.194 91.0317C100.195 95.4619 103.786 99.0515 108.215 99.0523C112.645 99.0515 116.235 95.4619 116.235 91.0317H115.146Z" fill="#CD0A24"/>
<path fill-rule="evenodd" clip-rule="evenodd" d="M134.774 80.6724C134.774 79.0556 135.426 77.6021 136.485 76.5414C137.546 75.4826 139 74.831 140.617 74.8305C142.234 74.831 143.687 75.4826 144.748 76.5414C145.807 77.6016 146.459 79.0556 146.459 80.6724C146.459 81.2735 146.947 81.7613 147.548 81.7613C148.15 81.7613 148.637 81.2735 148.637 80.6724C148.637 76.2422 145.047 72.6531 140.617 72.6527C138.405 72.6518 136.393 73.5517 134.946 75.0013C133.496 76.4487 132.595 78.4606 132.596 80.6724C132.596 81.2735 133.084 81.7613 133.685 81.7613C134.286 81.7613 134.774 81.2735 134.774 80.6724Z" fill="#CD0A24"/>
<path fill-rule="evenodd" clip-rule="evenodd" d="M13.254 89.9114C11.6354 89.9105 10.181 89.2611 9.12086 88.2074C8.06242 87.1516 7.41211 85.7064 7.41167 84.1C7.41211 82.4936 8.06242 81.0484 9.12086 79.993C10.181 78.9393 11.6354 78.2899 13.254 78.2894C13.8551 78.2894 14.3429 77.802 14.3429 77.2005C14.3429 76.599 13.8551 76.1116 13.254 76.1116C11.0439 76.1111 9.03287 77.0063 7.58416 78.4498C6.13414 79.8911 5.23294 81.896 5.23381 84.1C5.23294 86.304 6.13414 88.3089 7.58416 89.7507C9.03287 91.1942 11.0439 92.0897 13.254 92.0893C13.8551 92.0893 14.3429 91.6014 14.3429 91.0003C14.3429 90.3988 13.8551 89.9114 13.254 89.9114Z" fill="#CD0A24"/>
<path fill-rule="evenodd" clip-rule="evenodd" d="M16.7199 18.0971H15.6309C15.6301 19.714 14.9784 21.1675 13.9196 22.2285C12.8589 23.2874 11.405 23.939 9.78858 23.9399C8.17174 23.939 6.7178 23.2874 5.65718 22.2285C4.59786 21.1675 3.94625 19.714 3.94581 18.0971C3.94625 16.4803 4.59786 15.0268 5.65718 13.9662C6.7178 12.9073 8.17174 12.2557 9.78858 12.2548C11.405 12.2557 12.8589 12.9073 13.9196 13.9657C14.9784 15.0264 15.6301 16.4799 15.6309 18.0971H17.8088C17.8079 13.6669 14.2179 10.0778 9.78858 10.0769C7.57718 10.0765 5.56527 10.9764 4.11699 12.426C2.66741 13.8734 1.76708 15.8853 1.76795 18.0971C1.76838 22.5274 5.35881 26.1169 9.78858 26.1178C14.2179 26.1169 17.8079 22.5269 17.8088 18.0971H16.7199Z" fill="#CD0A24"/>
<path fill-rule="evenodd" clip-rule="evenodd" d="M230.465 26.0128H229.376C229.375 27.6297 228.723 29.0836 227.664 30.1447C226.604 31.2035 225.15 31.8552 223.534 31.8556C221.917 31.8552 220.463 31.2035 219.402 30.1447C218.343 29.0836 217.691 27.6297 217.691 26.0128C217.691 24.396 218.343 22.9425 219.402 21.8818C220.463 20.823 221.916 20.1718 223.534 20.1709C225.15 20.1718 226.604 20.823 227.664 21.8818C228.723 22.9425 229.375 24.396 229.376 26.0128H231.553C231.553 21.5826 227.963 17.9939 223.534 17.993C219.104 17.9939 215.513 21.5826 215.513 26.0128C215.513 30.443 219.103 34.033 223.534 34.0335C227.963 34.033 231.553 30.443 231.553 26.0128H230.465Z" fill="#CD0A24"/>
<path fill-rule="evenodd" clip-rule="evenodd" d="M54.7118 10.4072V11.4961H67.4105V23.1063H55.8008V10.4072H54.7118V11.4961V10.4072H53.6229V24.1952C53.6229 24.4818 53.7392 24.7623 53.9422 24.9649C54.1447 25.1678 54.4252 25.2841 54.7118 25.2841H68.4995C68.7861 25.2841 69.0666 25.1678 69.2691 24.9649C69.4721 24.7623 69.5884 24.4818 69.5884 24.1952V10.4072C69.5884 10.1206 69.4721 9.84004 69.2691 9.63707C69.0666 9.43453 68.7861 9.31823 68.4995 9.31823H54.7118C54.4252 9.31823 54.1447 9.43453 53.9422 9.63707C53.7392 9.84004 53.6229 10.1206 53.6229 10.4072H54.7118Z" fill="#CD0A24"/>
<path fill-rule="evenodd" clip-rule="evenodd" d="M211.291 77.2065V78.2954H223.99V89.9052H212.38V77.2065H211.291V78.2954V77.2065H210.203V90.9941C210.203 91.2807 210.319 91.5612 210.521 91.7642C210.724 91.9668 211.005 92.0831 211.291 92.0831H225.079C225.365 92.0831 225.646 91.9668 225.848 91.7642C226.051 91.5612 226.168 91.2807 226.168 90.9941V77.2065C226.168 76.9195 226.051 76.639 225.848 76.4364C225.646 76.2334 225.365 76.1176 225.079 76.1176H211.291C211.005 76.1176 210.724 76.2334 210.521 76.4364C210.319 76.639 210.203 76.9195 210.203 77.2065H211.291Z" fill="#CD0A24"/>
<path fill-rule="evenodd" clip-rule="evenodd" d="M170.359 95.2812C170.143 95.279 170.013 95.2402 169.882 95.174C169.767 95.1148 169.649 95.0246 169.518 94.8843C169.289 94.6422 169.04 94.2449 168.779 93.7662C168.379 93.0501 167.962 92.1577 167.249 91.3662C166.892 90.9729 166.449 90.607 165.903 90.3474C165.359 90.0861 164.722 89.9415 164.027 89.9428C163.426 89.9428 162.938 90.4302 162.938 91.0317C162.938 91.6332 163.426 92.1206 164.027 92.1206C164.382 92.1215 164.644 92.1794 164.869 92.27C165.064 92.3497 165.234 92.4569 165.401 92.5998C165.692 92.848 165.968 93.2174 166.236 93.6691C166.645 94.3447 167.01 95.1814 167.58 95.9546C167.868 96.3392 168.222 96.7155 168.692 97.0021C169.159 97.29 169.742 97.4625 170.359 97.4591C170.96 97.4591 171.448 96.9712 171.448 96.3701C171.448 95.7686 170.96 95.2812 170.359 95.2812Z" fill="#CD0A24"/>
<path fill-rule="evenodd" clip-rule="evenodd" d="M183.022 95.2811C182.806 95.279 182.676 95.2402 182.545 95.174C182.431 95.1148 182.312 95.0246 182.181 94.8843C181.952 94.6421 181.703 94.2453 181.442 93.7666C181.043 93.0506 180.625 92.1585 179.913 91.3671C179.556 90.9737 179.113 90.6079 178.567 90.3478C178.023 90.0869 177.386 89.9423 176.691 89.9436C176.089 89.9436 175.602 90.431 175.602 91.0325C175.602 91.6341 176.089 92.1215 176.691 92.1215C177.045 92.1223 177.308 92.1803 177.532 92.2705C177.728 92.3506 177.898 92.4578 178.065 92.6006C178.355 92.8485 178.631 93.2178 178.899 93.6695C179.308 94.3451 179.673 95.1818 180.243 95.9545C180.531 96.3391 180.885 96.7155 181.355 97.0021C181.822 97.29 182.405 97.4625 183.022 97.459C183.623 97.459 184.111 96.9712 184.111 96.3701C184.111 95.7685 183.623 95.2811 183.022 95.2811Z" fill="#CD0A24"/>
<path fill-rule="evenodd" clip-rule="evenodd" d="M170.359 97.459C170.896 97.4607 171.408 97.3331 171.839 97.1071C172.218 96.911 172.531 96.6501 172.791 96.3709C173.246 95.88 173.559 95.336 173.847 94.8155C174.272 94.0332 174.65 93.2958 175.079 92.8323C175.293 92.5984 175.507 92.4307 175.752 92.3136C175.997 92.1977 176.283 92.1228 176.691 92.1215C177.292 92.1215 177.78 91.6341 177.78 91.0325C177.78 90.431 177.292 89.9436 176.691 89.9436C176.085 89.9427 175.524 90.0512 175.03 90.2529C174.597 90.4284 174.219 90.6723 173.898 90.9485C173.334 91.4341 172.94 92.0056 172.612 92.5531C172.126 93.3759 171.761 94.1687 171.393 94.6504C171.212 94.8935 171.045 95.0507 170.895 95.1409C170.742 95.2302 170.606 95.2776 170.359 95.2811C169.757 95.2811 169.27 95.7685 169.27 96.3701C169.27 96.9711 169.757 97.459 170.359 97.459Z" fill="#CD0A24"/>
<path fill-rule="evenodd" clip-rule="evenodd" d="M183.022 97.459C183.559 97.4607 184.071 97.3327 184.502 97.1066C184.88 96.9106 185.193 96.6497 185.454 96.3705C185.909 95.8796 186.222 95.3356 186.51 94.8155C186.935 94.0328 187.313 93.2958 187.742 92.8323C187.955 92.5984 188.169 92.4307 188.413 92.3136C188.66 92.1977 188.945 92.1228 189.352 92.1215H189.353V91.0356L189.181 92.1075C189.261 92.1202 189.322 92.1215 189.353 92.1215V91.0356L189.181 92.1075C189.775 92.2025 190.333 91.7983 190.428 91.2046C190.523 90.6105 190.119 90.0521 189.525 89.9571C189.445 89.9445 189.383 89.9436 189.353 89.9436H189.352C188.747 89.9427 188.186 90.0512 187.691 90.2529C187.258 90.4284 186.881 90.6723 186.56 90.9485C185.997 91.4337 185.603 92.0052 185.274 92.5527C184.789 93.3755 184.424 94.1682 184.056 94.6504C183.875 94.893 183.707 95.0503 183.557 95.1409C183.404 95.2297 183.269 95.2776 183.022 95.2811C182.42 95.2811 181.933 95.769 181.933 96.3701C181.933 96.9716 182.421 97.459 183.022 97.459Z" fill="#CD0A24"/>
<path fill-rule="evenodd" clip-rule="evenodd" d="M200.666 47.1917C200.664 47.4078 200.625 47.5376 200.559 47.6691C200.5 47.7832 200.41 47.9013 200.269 48.0324C200.027 48.2619 199.63 48.5111 199.151 48.772C198.435 49.1714 197.543 49.5891 196.752 50.3017C196.359 50.6589 195.993 51.1019 195.733 51.6472C195.472 52.1912 195.327 52.8285 195.329 53.5241C195.329 54.1252 195.816 54.613 196.418 54.613C197.019 54.613 197.506 54.1252 197.506 53.5241C197.507 53.1691 197.565 52.9064 197.656 52.6821C197.736 52.4865 197.843 52.3162 197.986 52.1494C198.233 51.8589 198.603 51.5832 199.055 51.3149C199.731 50.9058 200.567 50.5408 201.34 49.9707C201.724 49.6823 202.1 49.3291 202.387 48.8591C202.675 48.3917 202.847 47.8085 202.844 47.1917C202.844 46.5906 202.356 46.1028 201.755 46.1028C201.154 46.1028 200.666 46.5906 200.666 47.1917Z" fill="#CD0A24"/>
<path fill-rule="evenodd" clip-rule="evenodd" d="M200.666 34.5288C200.664 34.7448 200.625 34.8746 200.559 35.0061C200.5 35.1203 200.41 35.2383 200.269 35.3694C200.027 35.599 199.63 35.8477 199.152 36.109C198.436 36.508 197.543 36.9257 196.752 37.6379C196.359 37.9951 195.993 38.438 195.733 38.9834C195.472 39.5274 195.327 40.1646 195.329 40.8598C195.329 41.4613 195.816 41.9488 196.418 41.9488C197.019 41.9488 197.506 41.4613 197.506 40.8598C197.507 40.5057 197.565 40.2426 197.656 40.0187C197.736 39.8232 197.843 39.6528 197.986 39.486C198.233 39.1955 198.603 38.9198 199.055 38.6515C199.73 38.2425 200.567 37.8779 201.34 37.3073C201.724 37.0194 202.1 36.6657 202.387 36.1957C202.675 35.7288 202.847 35.1455 202.844 34.5288C202.844 33.9272 202.356 33.4398 201.755 33.4398C201.154 33.4398 200.666 33.9272 200.666 34.5288Z" fill="#CD0A24"/>
<path fill-rule="evenodd" clip-rule="evenodd" d="M202.844 47.1917C202.846 46.6551 202.718 46.1429 202.492 45.7116C202.296 45.3336 202.035 45.02 201.756 44.7599C201.265 44.3043 200.721 43.9916 200.201 43.7032C199.418 43.2785 198.681 42.9005 198.218 42.4714C197.984 42.258 197.816 42.0437 197.699 41.7993C197.583 41.5532 197.508 41.2675 197.506 40.8598C197.506 40.2587 197.019 39.7709 196.418 39.7709C195.816 39.7709 195.329 40.2587 195.329 40.8598C195.328 41.4657 195.436 42.0267 195.638 42.5211C195.813 42.954 196.057 43.3321 196.333 43.6531C196.819 44.2163 197.391 44.6105 197.938 44.9389C198.761 45.4246 199.554 45.7896 200.035 46.1572C200.278 46.3384 200.436 46.5061 200.526 46.656C200.615 46.8089 200.663 46.9443 200.666 47.1917C200.666 47.7933 201.154 48.2807 201.755 48.2807C202.356 48.2807 202.844 47.7933 202.844 47.1917Z" fill="#CD0A24"/>
<path fill-rule="evenodd" clip-rule="evenodd" d="M202.844 34.5288C202.846 33.9921 202.718 33.4799 202.492 33.0487C202.296 32.6706 202.035 32.3574 201.756 32.097C201.265 31.6418 200.721 31.3291 200.201 31.0407C199.418 30.616 198.681 30.2375 198.217 29.8089C197.983 29.595 197.816 29.3812 197.699 29.1368C197.583 28.8907 197.508 28.605 197.506 28.1977C197.506 27.5962 197.019 27.1088 196.418 27.1088C195.816 27.1088 195.329 27.5962 195.329 28.1977C195.328 28.8032 195.436 29.3642 195.638 29.8586C195.813 30.2915 196.057 30.6696 196.333 30.9906C196.819 31.5538 197.391 31.948 197.938 32.2764C198.761 32.7621 199.554 33.1271 200.035 33.4947C200.278 33.6759 200.436 33.8436 200.526 33.9935C200.615 34.1463 200.663 34.2814 200.666 34.5288C200.666 35.1303 201.154 35.6177 201.755 35.6177C202.356 35.6177 202.844 35.1303 202.844 34.5288Z" fill="#CD0A24"/>
<path fill-rule="evenodd" clip-rule="evenodd" d="M70.0793 57.1711C70.0771 57.3867 70.0383 57.5165 69.9721 57.648C69.9129 57.7622 69.8227 57.8806 69.6825 58.0113C69.4403 58.2409 69.0435 58.49 68.5643 58.7509C67.8483 59.1503 66.9566 59.568 66.1652 60.2802C65.7719 60.6374 65.406 61.0804 65.146 61.6257C64.8851 62.1697 64.74 62.8065 64.7417 63.5021C64.7417 64.1032 65.2292 64.5911 65.8307 64.5911C66.4318 64.5911 66.9196 64.1032 66.9196 63.5021C66.9201 63.1476 66.9784 62.8849 67.0686 62.6606C67.1487 62.465 67.2559 62.2952 67.3987 62.1283C67.6466 61.8374 68.016 61.5621 68.4676 61.2938C69.1432 60.8848 69.98 60.5198 70.7527 59.9496C71.1373 59.6613 71.5136 59.308 71.8002 58.838C72.0881 58.3707 72.2602 57.7874 72.2572 57.1711C72.2572 56.5696 71.7693 56.0822 71.1682 56.0822C70.5667 56.0822 70.0793 56.5696 70.0793 57.1711Z" fill="#CD0A24"/>
<path fill-rule="evenodd" clip-rule="evenodd" d="M70.0793 44.5077C70.0771 44.7237 70.0383 44.8535 69.9721 44.985C69.9129 45.0992 69.8227 45.2172 69.6825 45.3483C69.4403 45.5779 69.0435 45.827 68.5643 46.0879C67.8483 46.4869 66.9566 46.9046 66.1652 47.6172C65.7719 47.9739 65.406 48.4169 65.146 48.9623C64.8851 49.5063 64.74 50.1435 64.7417 50.8387C64.7417 51.4402 65.2292 51.9276 65.8307 51.9276C66.4318 51.9276 66.9196 51.4402 66.9196 50.8387C66.9201 50.4846 66.9784 50.2215 67.0686 49.9976C67.1487 49.802 67.2559 49.6322 67.3987 49.4649C67.6466 49.1744 68.016 48.8986 68.4676 48.6308C69.1432 48.2213 69.98 47.8568 70.7527 47.2866C71.1373 46.9982 71.5136 46.645 71.8002 46.1746C72.0881 45.7077 72.2602 45.1244 72.2572 44.5077C72.2572 43.9066 71.7693 43.4187 71.1682 43.4187C70.5667 43.4187 70.0793 43.9066 70.0793 44.5077Z" fill="#CD0A24"/>
<path fill-rule="evenodd" clip-rule="evenodd" d="M72.2571 57.1711C72.2589 56.634 72.1313 56.1218 71.9052 55.691C71.7092 55.3125 71.4483 54.9989 71.1691 54.7388C70.6782 54.2832 70.1342 53.9705 69.6136 53.6821C68.8314 53.2574 68.0939 52.8789 67.6305 52.4499C67.3966 52.2365 67.2289 52.0226 67.1117 51.7778C66.9959 51.5321 66.9209 51.246 66.9196 50.8387C66.9196 50.2376 66.4318 49.7498 65.8307 49.7498C65.2292 49.7498 64.7418 50.2376 64.7418 50.8387C64.7409 51.4446 64.8493 52.0056 65.051 52.5C65.2266 52.9329 65.4705 53.311 65.7466 53.632C66.2319 54.1948 66.8038 54.589 67.3513 54.9174C68.1741 55.4031 68.9668 55.7685 69.4486 56.1361C69.6912 56.3173 69.8489 56.485 69.939 56.6349C70.0279 56.7878 70.0758 56.9232 70.0793 57.1711C70.0793 57.7722 70.5667 58.26 71.1682 58.26C71.7693 58.26 72.2571 57.7722 72.2571 57.1711Z" fill="#CD0A24"/>
<path fill-rule="evenodd" clip-rule="evenodd" d="M72.2571 44.5077C72.2589 43.9711 72.1313 43.4588 71.9052 43.0276C71.7092 42.6491 71.4483 42.3359 71.1691 42.0754C70.6782 41.6203 70.1342 41.3075 69.6136 41.0192C68.8314 40.5945 68.0939 40.2164 67.6305 39.7874C67.3966 39.5739 67.2289 39.3596 67.1117 39.1148C66.9959 38.8692 66.9209 38.5834 66.9196 38.1758C66.9196 37.5742 66.4318 37.0868 65.8307 37.0868C65.2292 37.0868 64.7418 37.5742 64.7418 38.1758C64.7409 38.7816 64.8493 39.3426 65.051 39.837C65.2266 40.27 65.4705 40.6481 65.7466 40.9691C66.2319 41.5323 66.8038 41.9265 67.3513 42.2549C68.1741 42.7406 68.9668 43.1056 69.4486 43.4732C69.6912 43.6544 69.8489 43.8221 69.939 43.9719C70.0279 44.1248 70.0758 44.2603 70.0793 44.5077C70.0793 45.1092 70.5667 45.5966 71.1682 45.5966C71.7693 45.5966 72.2571 45.1092 72.2571 44.5077Z" fill="#CD0A24"/>
<path fill-rule="evenodd" clip-rule="evenodd" d="M58.1498 92.0892H73.7733C74.3749 92.0892 74.8623 91.6013 74.8623 91.0003C74.8623 90.3987 74.3749 89.9113 73.7733 89.9113H58.1498C57.5483 89.9113 57.0609 90.3987 57.0609 91.0003C57.0609 91.6013 57.5483 92.0892 58.1498 92.0892Z" fill="#CD0A24"/>
<path fill-rule="evenodd" clip-rule="evenodd" d="M99.0374 61.5861L110.085 50.5387C110.51 50.1135 110.51 49.424 110.085 48.9989C109.66 48.5733 108.97 48.5733 108.545 48.9989L97.4977 60.0463C97.0721 60.4715 97.0721 61.161 97.4977 61.5861C97.9228 62.0116 98.6123 62.0116 99.0374 61.5861Z" fill="#CD0A24"/>
<path fill-rule="evenodd" clip-rule="evenodd" d="M111.045 25.1191L113.903 20.1618H114.406L111.799 24.683L120.557 24.6756L129.317 24.6717L124.932 17.0888L125.12 16.9799L125.309 16.871L130.072 25.1068L120.557 25.1112L111.045 25.1191ZM115.159 17.9835L116.512 15.6353L116.764 16.0709L116.175 17.0932L115.662 17.9831L115.159 17.9835ZM124.932 17.0888L120.546 9.50463L118.019 13.8917L117.767 13.4562L120.546 8.63349L125.309 16.871L125.12 16.9799L124.932 17.0888Z" fill="#ADADAD"/>
<path fill-rule="evenodd" clip-rule="evenodd" d="M113.903 20.1618L115.159 17.9835L115.662 17.983L114.406 20.1618H113.903ZM116.764 16.0709L116.512 15.6353L117.768 13.4561L118.019 13.8917L116.764 16.0709Z" fill="black"/>
<path fill-rule="evenodd" clip-rule="evenodd" d="M163.464 54.8137L166.322 49.8565L166.825 49.856L164.219 54.3777L172.976 54.3703L181.736 54.3659L177.351 46.7835L177.728 46.5657L182.491 54.8015L172.977 54.8059L163.464 54.8137ZM167.578 47.6782L168.931 45.33L169.183 45.7656L168.081 47.6777L167.578 47.6782ZM177.351 46.7835L172.966 39.1993L170.439 43.5864L170.186 43.1508L172.965 38.3282L177.728 46.5657L177.351 46.7835Z" fill="#ADADAD"/>
<path fill-rule="evenodd" clip-rule="evenodd" d="M166.322 49.8565L167.578 47.6782L168.081 47.6777L166.825 49.856L166.322 49.8565ZM169.183 45.7656L168.931 45.33L170.186 43.1508L170.439 43.5864L169.183 45.7656Z" fill="black"/>
<path fill-rule="evenodd" clip-rule="evenodd" d="M48.947 83.4461L42.2161 76.7218L40.5866 75.0954L40.7169 74.6093L42.5241 76.4134L48.721 82.6046L50.9816 74.1427L51.192 74.1989L50.9816 74.1427L53.2435 65.6787L44.7869 67.9533L42.318 68.6166L42.4478 68.1305L44.6736 67.5325L53.8594 65.0619L48.947 83.4461ZM38.8073 73.3186L35.4839 70.0013L40.0191 68.783L39.8893 69.2691L36.3259 70.2261L38.9371 72.833L38.8073 73.3186Z" fill="#ADADAD"/>
<path fill-rule="evenodd" clip-rule="evenodd" d="M40.5866 75.0954L38.8073 73.3187L38.9371 72.833L40.7169 74.6093L40.5866 75.0954ZM39.8893 69.2691L40.0191 68.783L42.4478 68.1306L42.318 68.6167L39.8893 69.2691Z" fill="black"/>
<path fill-rule="evenodd" clip-rule="evenodd" d="M118.153 104C114.766 104 111.929 101.644 111.191 98.4817C111.328 98.4268 111.464 98.368 111.598 98.3058C111.878 99.5759 112.518 100.71 113.406 101.598C114.622 102.813 116.299 103.564 118.153 103.564C120.008 103.564 121.685 102.813 122.901 101.598C124.116 100.383 124.867 98.7052 124.867 96.8505C124.867 94.9958 124.116 93.3189 122.901 92.1036C121.685 90.8884 120.008 90.1374 118.153 90.1374C117.478 90.1374 116.827 90.2372 116.212 90.4223C116.201 90.2742 116.186 90.127 116.167 89.9815C116.797 89.7994 117.464 89.7019 118.153 89.7019C122.102 89.7019 125.302 92.902 125.302 96.8505C125.302 100.799 122.102 104 118.153 104ZM111.038 96.1488C111.246 94.0154 112.391 92.1568 114.057 90.9907C114.057 91.0042 114.057 91.0177 114.057 91.0317C114.057 91.2059 114.05 91.3784 114.035 91.5487C113.814 91.7203 113.604 91.9059 113.406 92.1036C112.412 93.0972 111.729 94.3995 111.513 95.8552C111.359 95.9602 111.201 96.0582 111.038 96.1488Z" fill="#ADADAD"/>
<path fill-rule="evenodd" clip-rule="evenodd" d="M111.191 98.4817C111.068 97.9577 111.004 97.412 111.004 96.8505C111.004 96.6135 111.015 96.3796 111.038 96.1488C111.201 96.0582 111.359 95.9602 111.513 95.8552C111.464 96.1801 111.439 96.5125 111.439 96.8505C111.439 97.3505 111.494 97.8375 111.598 98.3057C111.464 98.368 111.328 98.4268 111.191 98.4817ZM114.035 91.5487C114.05 91.3784 114.057 91.2059 114.057 91.0317C114.057 91.0177 114.057 91.0042 114.057 90.9907C114.692 90.546 115.404 90.2019 116.167 89.9815C116.186 90.127 116.201 90.2742 116.212 90.4223C115.414 90.6628 114.678 91.0487 114.035 91.5487Z" fill="black"/>
<path fill-rule="evenodd" clip-rule="evenodd" d="M157.704 86.4912H157.269C157.269 84.6365 156.517 82.9596 155.302 81.7443C154.086 80.5291 152.409 79.7782 150.555 79.7782C149.88 79.7782 149.228 79.8774 148.614 80.0626C148.603 79.9145 148.588 79.7681 148.569 79.6218C149.199 79.4401 149.866 79.3426 150.555 79.3426C154.503 79.3426 157.704 82.5427 157.704 86.4912ZM143.841 86.4912H143.405C143.405 84.0664 144.613 81.9238 146.459 80.631C146.459 80.6449 146.459 80.6584 146.459 80.6724C146.459 80.8257 146.491 80.9716 146.548 81.104C146.286 81.2992 146.038 81.5135 145.807 81.7443C144.592 82.9596 143.841 84.6365 143.841 86.4912Z" fill="#ADADAD"/>
<path fill-rule="evenodd" clip-rule="evenodd" d="M146.548 81.1041C146.491 80.9717 146.459 80.8258 146.459 80.6725C146.459 80.6585 146.459 80.645 146.459 80.6311C147.095 80.1864 147.805 79.8423 148.569 79.6219C148.588 79.7682 148.603 79.9145 148.614 80.0626C147.861 80.2896 147.164 80.6455 146.548 81.1041Z" fill="black"/>
<path fill-rule="evenodd" clip-rule="evenodd" d="M23.192 97.0369C19.244 97.0369 16.0434 93.8503 16.043 89.9188C16.0434 85.9873 19.244 82.8015 23.192 82.8015V83.2371C21.3369 83.2371 19.66 83.985 18.4443 85.1945C17.2295 86.4046 16.4785 88.0733 16.4785 89.9188C16.4785 91.7643 17.2295 93.4334 18.4443 94.6434C19.66 95.8534 21.3369 96.6013 23.192 96.6013V97.0369Z" fill="#ADADAD"/>
<path fill-rule="evenodd" clip-rule="evenodd" d="M19.7266 31.0655C16.3396 31.0655 13.5023 28.7095 12.764 25.5472C12.9016 25.4923 13.0371 25.4335 13.1708 25.3712C13.4513 26.6409 14.0916 27.7756 14.9793 28.6633C16.195 29.879 17.8724 30.6299 19.7266 30.6299C21.5809 30.6299 23.2582 29.879 24.4739 28.6633C25.6892 27.4476 26.4401 25.7706 26.4401 23.916C26.4401 22.0613 25.6892 20.3844 24.4739 19.1691C23.2582 17.9539 21.5809 17.2029 19.7266 17.2029C19.0515 17.2029 18.4003 17.3022 17.7857 17.4874C17.7748 17.3397 17.7596 17.1925 17.7404 17.047C18.3711 16.8649 19.0375 16.7674 19.7266 16.7674C23.6746 16.7674 26.8757 19.9675 26.8757 23.916C26.8757 27.8644 23.6751 31.0655 19.7266 31.0655ZM12.6111 23.2138C12.8193 21.0804 13.9649 19.2223 15.6305 18.0562C15.6309 18.0697 15.6309 18.0832 15.6309 18.0972C15.6309 18.2714 15.6231 18.4435 15.6083 18.6138C15.387 18.7858 15.1771 18.9714 14.9793 19.1691C13.9853 20.1627 13.3024 21.465 13.0859 22.9207C12.9326 23.0257 12.7744 23.1237 12.6111 23.2138Z" fill="#ADADAD"/>
<path fill-rule="evenodd" clip-rule="evenodd" d="M12.764 25.5472C12.6416 25.0232 12.5771 24.4774 12.5771 23.916C12.5771 23.679 12.5885 23.4451 12.6111 23.2138C12.7745 23.1237 12.9326 23.0257 13.0859 22.9207C13.0375 23.2456 13.0127 23.5775 13.0127 23.916C13.0127 24.416 13.0672 24.903 13.1708 25.3712C13.0371 25.4335 12.9016 25.4923 12.764 25.5472ZM15.6083 18.6138C15.6231 18.4435 15.6309 18.2714 15.6309 18.0972C15.6309 18.0832 15.6309 18.0697 15.6305 18.0562C16.266 17.6115 16.9769 17.267 17.7404 17.047C17.7596 17.1925 17.7748 17.3397 17.7857 17.4874C16.9869 17.7282 16.2512 18.1137 15.6083 18.6138Z" fill="black"/>
<path fill-rule="evenodd" clip-rule="evenodd" d="M233.472 38.9816C230.084 38.9816 227.247 36.626 226.509 33.4633C226.647 33.408 226.782 33.3496 226.916 33.2873C227.196 34.557 227.837 35.6912 228.724 36.5794C229.94 37.7946 231.617 38.5456 233.472 38.546C235.326 38.5456 237.003 37.7946 238.219 36.5794C239.434 35.3637 240.185 33.6867 240.185 31.8321C240.185 29.9774 239.434 28.3005 238.219 27.0848C237.003 25.87 235.326 25.119 233.472 25.119C232.797 25.119 232.145 25.2183 231.53 25.4035C231.519 25.2558 231.504 25.1086 231.485 24.9631C232.116 24.781 232.783 24.6835 233.472 24.6835C237.419 24.6835 240.62 27.8832 240.62 31.8321C240.62 35.7805 237.42 38.9811 233.472 38.9816ZM226.356 31.1299C226.564 28.9965 227.71 27.1383 229.375 25.9723C229.376 25.9858 229.376 25.9993 229.376 26.0128C229.376 26.1875 229.368 26.36 229.353 26.5303C229.132 26.7019 228.922 26.8875 228.724 27.0848C227.731 28.0788 227.047 29.3811 226.831 30.8364C226.678 30.9418 226.52 31.0393 226.356 31.1299Z" fill="#ADADAD"/>
<path fill-rule="evenodd" clip-rule="evenodd" d="M226.509 33.4633C226.387 32.9393 226.322 32.3931 226.322 31.8321C226.322 31.5951 226.334 31.3608 226.356 31.1299C226.52 31.0393 226.678 30.9418 226.831 30.8364C226.783 31.1613 226.758 31.4936 226.758 31.8321C226.758 32.3317 226.812 32.8187 226.916 33.2873C226.782 33.3496 226.647 33.408 226.509 33.4633ZM229.353 26.5303C229.368 26.36 229.376 26.1875 229.376 26.0128C229.376 25.9993 229.376 25.9858 229.375 25.9723C230.011 25.5272 230.722 25.1835 231.485 24.9631C231.504 25.1086 231.519 25.2558 231.53 25.4035C230.732 25.6443 229.996 26.0303 229.353 26.5303Z" fill="black"/>
<path fill-rule="evenodd" clip-rule="evenodd" d="M78.6552 30.2318H64.4325V25.2842H64.8681V29.7963H78.2197V16.4442H69.5884V16.0086H78.6552V30.2318ZM64.8681 23.1063H64.4325V16.0086H67.4105V16.4442H64.8681V23.1063Z" fill="#ADADAD"/>
<path fill-rule="evenodd" clip-rule="evenodd" d="M64.4325 25.2842H64.8681V23.1063H64.4325V25.2842ZM67.4105 16.4442H69.5884V16.0086H67.4105V16.4442Z" fill="black"/>
<path fill-rule="evenodd" clip-rule="evenodd" d="M235.234 97.0308H221.012V92.0832H221.448V96.5953H234.799V83.2432H226.168V82.8076H235.234V97.0308ZM221.448 89.9053H221.012V82.8076H223.99V83.2432H221.448V89.9053Z" fill="#ADADAD"/>
<path fill-rule="evenodd" clip-rule="evenodd" d="M221.012 92.0832H221.448V89.9053H221.012V92.0832ZM223.99 83.2432H226.168V82.8076H223.99V83.2432Z" fill="black"/>
<path fill-rule="evenodd" clip-rule="evenodd" d="M180.29 102.407C179.68 102.407 179.182 102.195 178.785 101.864C178.385 101.532 178.078 101.089 177.796 100.61C177.236 99.6525 176.765 98.5474 176.004 97.844C175.495 97.3753 174.875 97.0709 173.965 97.0682V96.6327C173.966 96.6327 173.968 96.6327 173.97 96.6327C174.726 96.6327 175.339 96.8339 175.837 97.161C176.337 97.4886 176.719 97.935 177.044 98.4181C177.69 99.3851 178.126 100.507 178.742 101.212C179.156 101.682 179.613 101.968 180.297 101.971V102.407C180.295 102.407 180.292 102.407 180.29 102.407Z" fill="#ADADAD"/>
<path fill-rule="evenodd" clip-rule="evenodd" d="M192.953 102.407C192.343 102.407 191.845 102.195 191.449 101.864C191.048 101.532 190.741 101.089 190.459 100.61C189.899 99.6529 189.428 98.5483 188.667 97.8449C188.159 97.3762 187.538 97.0717 186.629 97.0691V96.6335C186.631 96.6335 186.632 96.6335 186.634 96.6335C187.389 96.6335 188.003 96.8348 188.501 97.1619C189 97.489 189.383 97.9359 189.707 98.4189C190.353 99.3855 190.789 100.508 191.405 101.212C191.819 101.682 192.276 101.968 192.96 101.971V102.407C192.958 102.407 192.955 102.407 192.953 102.407Z" fill="#ADADAD"/>
<path fill-rule="evenodd" clip-rule="evenodd" d="M180.308 102.407C180.304 102.407 180.3 102.407 180.297 102.407V101.971C180.813 101.969 181.193 101.806 181.531 101.529C181.867 101.251 182.153 100.85 182.423 100.389C182.967 99.4704 183.44 98.3236 184.294 97.526C184.861 96.9955 185.613 96.6335 186.618 96.6335C186.622 96.6335 186.625 96.6335 186.629 96.6335V97.0691C185.946 97.07 185.428 97.2442 184.996 97.526C184.564 97.8087 184.218 98.2064 183.912 98.6616C183.298 99.5715 182.868 100.701 182.18 101.498C181.727 102.026 181.123 102.407 180.308 102.407Z" fill="#ADADAD"/>
<path fill-rule="evenodd" clip-rule="evenodd" d="M192.96 102.407L192.96 102.189V101.971C193.475 101.969 193.856 101.806 194.194 101.528C194.53 101.251 194.815 100.849 195.085 100.389C195.629 99.4704 196.103 98.3236 196.956 97.5256C197.523 96.9955 198.274 96.6335 199.28 96.6335C199.283 96.6335 199.287 96.6335 199.29 96.6335H199.291L199.326 96.6362L199.257 97.0665L199.291 96.8544V97.0691H199.29C198.608 97.07 198.09 97.2442 197.658 97.526C197.226 97.8083 196.88 98.2059 196.574 98.6616C195.96 99.571 195.53 100.7 194.843 101.497C194.389 102.026 193.785 102.407 192.971 102.407C192.967 102.407 192.963 102.407 192.96 102.407Z" fill="#ADADAD"/>
<path fill-rule="evenodd" clip-rule="evenodd" d="M206.573 59.3429H206.138C206.137 58.585 206.338 57.9695 206.666 57.4708C206.993 56.9712 207.44 56.5888 207.923 56.2643C208.89 55.6183 210.012 55.1823 210.717 54.5655C211.186 54.1522 211.472 53.6953 211.475 53.011H211.911C211.913 53.6243 211.701 54.1239 211.368 54.5228C211.036 54.9227 210.593 55.2302 210.115 55.512C209.157 56.0722 208.053 56.543 207.349 57.3044C206.88 57.8127 206.576 58.4334 206.573 59.3429Z" fill="#ADADAD"/>
<path fill-rule="evenodd" clip-rule="evenodd" d="M206.573 46.679H206.138C206.137 45.9211 206.338 45.306 206.666 44.8073C206.993 44.3077 207.44 43.9253 207.923 43.6008C208.89 42.9552 210.012 42.5188 210.717 41.9025C211.186 41.4891 211.472 41.0322 211.475 40.3479H211.911C211.913 40.9608 211.701 41.4608 211.368 41.8593C211.036 42.2596 210.593 42.5667 210.115 42.849C209.157 43.4091 208.053 43.8795 207.349 44.6409C206.88 45.1488 206.576 45.7699 206.573 46.679Z" fill="#ADADAD"/>
<path fill-rule="evenodd" clip-rule="evenodd" d="M211.911 53.011H211.475C211.474 52.4953 211.31 52.1146 211.033 51.777C210.755 51.4403 210.354 51.1555 209.894 50.8854C208.975 50.3409 207.828 49.8679 207.03 49.0137C206.498 48.4449 206.135 47.69 206.138 46.6791H206.573C206.574 47.3616 206.748 47.8799 207.03 48.3125C207.313 48.7441 207.711 49.0904 208.166 49.3957C209.076 50.0103 210.205 50.4402 211.002 51.1276C211.533 51.5836 211.914 52.1904 211.911 53.011Z" fill="#ADADAD"/>
<path fill-rule="evenodd" clip-rule="evenodd" d="M211.911 40.348H211.475C211.474 39.8322 211.31 39.452 211.033 39.114C210.755 38.7777 210.354 38.4929 209.894 38.2224C208.975 37.6783 207.828 37.2049 207.03 36.3512C206.498 35.7823 206.135 35.0275 206.138 34.0165H206.573C206.574 34.699 206.748 35.2174 207.03 35.6499C207.313 36.0815 207.711 36.4278 208.166 36.7332C209.076 37.3477 210.205 37.7776 211.002 38.4645C211.533 38.9206 211.914 39.5273 211.911 40.348Z" fill="#ADADAD"/>
<path fill-rule="evenodd" clip-rule="evenodd" d="M75.9865 69.3209H75.5509C75.5501 68.5634 75.7513 67.948 76.0793 67.4493C76.4064 66.9497 76.8533 66.5672 77.3359 66.2432C78.3029 65.5972 79.4249 65.1612 80.1292 64.5444C80.5992 64.1311 80.8849 63.6746 80.8884 62.9899H81.324C81.3258 63.6031 81.1136 64.1027 80.7813 64.5017C80.4494 64.9016 80.006 65.2091 79.5277 65.4909C78.5703 66.0511 77.4657 66.5219 76.7623 67.2833C76.2936 67.7912 75.9891 68.4119 75.9865 69.3209Z" fill="#ADADAD"/>
<path fill-rule="evenodd" clip-rule="evenodd" d="M75.9865 56.658H75.5509C75.5501 55.9001 75.7513 55.285 76.0793 54.7863C76.4064 54.2867 76.8533 53.9043 77.3359 53.5798C78.3029 52.9343 79.4249 52.4982 80.1292 51.8815C80.5992 51.4681 80.8849 51.0112 80.8884 50.3269H81.324C81.3258 50.9398 81.1136 51.4398 80.7813 51.8383C80.4494 52.2386 80.006 52.5462 79.5277 52.828C78.5703 53.3881 77.4657 53.8585 76.7623 54.6199C76.2936 55.1282 75.9891 55.7489 75.9865 56.658Z" fill="#ADADAD"/>
<path fill-rule="evenodd" clip-rule="evenodd" d="M81.324 62.9899H80.8884C80.8867 62.4742 80.7233 62.0935 80.4459 61.7559C80.168 61.4192 79.7673 61.1343 79.3069 60.8638C78.3878 60.3198 77.2409 59.8463 76.4434 58.9922C75.9111 58.4233 75.5483 57.6689 75.5509 56.658H75.9865C75.9874 57.3405 76.1616 57.8588 76.4434 58.2909C76.7261 58.7226 77.1238 59.0688 77.5789 59.3746C78.4888 59.9892 79.6183 60.4191 80.415 61.1065C80.9459 61.5625 81.3275 62.1692 81.324 62.9899Z" fill="#ADADAD"/>
<path fill-rule="evenodd" clip-rule="evenodd" d="M81.324 50.3269H80.8884C80.8867 49.8112 80.7233 49.4305 80.4459 49.0929C80.168 48.7562 79.7673 48.4714 79.3069 48.2009C78.3878 47.6569 77.2409 47.1838 76.4434 46.3297C75.9111 45.7608 75.5483 45.006 75.5509 43.995H75.9865C75.9874 44.6775 76.1616 45.1959 76.4434 45.6284C76.7261 46.0601 77.1238 46.4063 77.5789 46.7117C78.4888 47.3263 79.6183 47.7562 80.415 48.4435C80.9459 48.8995 81.3275 49.5063 81.324 50.3269Z" fill="#ADADAD"/>
<path fill-rule="evenodd" clip-rule="evenodd" d="M159.396 17.2029H175.02V16.7674H159.396V17.2029Z" fill="#ADADAD"/>
<path fill-rule="evenodd" clip-rule="evenodd" d="M68.0878 97.0369H83.7114V96.6014H68.0878V97.0369Z" fill="#ADADAD"/>
<path fill-rule="evenodd" clip-rule="evenodd" d="M108.36 66.7894L108.052 66.4815L119.099 55.4336L119.407 55.7416L108.36 66.7894Z" fill="#ADADAD"/>
<path fill-rule="evenodd" clip-rule="evenodd" d="M138.114 48.1556L137.535 47.2335C137.26 47.4059 136.962 47.4856 136.663 47.4861C136.39 47.4861 136.118 47.4177 135.879 47.2879C135.639 47.1577 135.431 46.9699 135.273 46.7195L135.272 46.7182C135.099 46.4425 135.02 46.1454 135.02 45.8462C135.019 45.5735 135.088 45.3021 135.217 45.0626C135.348 44.8226 135.536 44.6144 135.787 44.4562C136.06 44.2846 136.357 44.2054 136.657 44.2045C136.93 44.2045 137.202 44.2733 137.442 44.4027C137.682 44.5329 137.89 44.7211 138.047 44.9711L138.048 44.9724C138.22 45.2464 138.3 45.5434 138.3 45.8427C138.3 46.1158 138.232 46.3876 138.102 46.628C137.972 46.8684 137.784 47.0766 137.534 47.2343L137.535 47.2335L138.114 48.1556L138.695 49.0772C139.268 48.7161 139.717 48.2213 140.019 47.6621C140.321 47.1023 140.478 46.4773 140.478 45.8427C140.479 45.1488 140.287 44.4401 139.891 43.8116L139.892 43.8129C139.531 43.2384 139.036 42.788 138.476 42.4866C137.916 42.1843 137.291 42.0271 136.657 42.0266C135.963 42.0262 135.255 42.2174 134.627 42.6129C134.053 42.9736 133.603 43.4679 133.301 44.0272C132.999 44.5869 132.842 45.212 132.841 45.8462C132.841 46.5409 133.033 47.2496 133.429 47.8785L133.429 47.8768C133.789 48.4513 134.284 48.9021 134.843 49.204C135.403 49.5063 136.028 49.6639 136.663 49.6639C137.357 49.6644 138.065 49.4732 138.694 49.0777L138.695 49.0772L138.114 48.1556Z" fill="#CD0A24"/>
<path fill-rule="evenodd" clip-rule="evenodd" d="M234.926 6.12894L234.346 5.20684C234.071 5.37933 233.774 5.45903 233.474 5.45947C233.201 5.45947 232.93 5.39109 232.69 5.26129C232.45 5.13105 232.242 4.94288 232.084 4.69199C231.911 4.41627 231.831 4.11878 231.831 3.8191C231.831 3.54687 231.899 3.2755 232.029 3.0355C232.159 2.7955 232.347 2.58774 232.598 2.42963C232.872 2.25801 233.169 2.1783 233.468 2.17786C233.741 2.17786 234.013 2.24624 234.253 2.37604C234.494 2.50628 234.702 2.69445 234.859 2.9449L234.86 2.94578C235.032 3.21975 235.112 3.51638 235.112 3.81562C235.112 4.08873 235.044 4.36051 234.914 4.60095C234.784 4.84139 234.596 5.04959 234.345 5.20727L234.346 5.20684L234.926 6.12894L235.506 7.05061C236.08 6.68995 236.529 6.19515 236.83 5.63543C237.132 5.07529 237.29 4.45025 237.29 3.81562C237.29 3.12175 237.099 2.41307 236.703 1.78497L236.703 1.78585C236.343 1.21133 235.848 0.761379 235.288 0.459527C234.727 0.157239 234.102 7.39474e-07 233.468 7.39474e-07C232.774 -0.000433962 232.067 0.190782 231.438 0.585847C230.864 0.946501 230.414 1.44087 230.113 2.00058C229.811 2.56029 229.653 3.18535 229.653 3.8191C229.653 4.51384 229.844 5.22251 230.24 5.85104C230.6 6.42469 231.095 6.87508 231.655 7.17737C232.215 7.47965 232.84 7.63689 233.474 7.63733C234.168 7.63777 234.876 7.44611 235.505 7.05105L235.506 7.05061L234.926 6.12894Z" fill="#CD0A24"/>
</g>
</svg>
