<svg width="92" height="63" viewBox="0 0 92 63" fill="none" xmlns="http://www.w3.org/2000/svg">
<path fill-rule="evenodd" clip-rule="evenodd" d="M53.5002 0C53.9082 0 54.2823 0.210418 54.4864 0.563207L79.533 43.8342C79.6283 44.0038 79.6826 44.2005 79.6826 44.3973C79.6826 45.0214 79.1726 45.5303 78.547 45.5303H57.873C57.465 45.537 57.091 45.32 56.887 44.9672L38.6477 13.4468C38.5457 13.2772 38.4028 13.1347 38.2328 13.0329C37.6887 12.7208 36.9951 12.904 36.6823 13.4468L22.4962 37.9589C22.401 38.1285 22.3466 38.3252 22.3466 38.522C22.3466 39.1461 22.8566 39.655 23.4823 39.655C23.4823 39.655 43.7086 39.6799 44.1524 39.6834C44.1596 39.6834 44.167 39.684 44.1743 39.6851L45.2284 39.6857C45.636 39.6859 46.0052 39.9046 46.2093 40.2579L48.2132 43.8398C48.5262 44.3815 48.3408 45.0777 47.8003 45.3899C47.63 45.4884 47.4324 45.5397 47.2379 45.5421L30.7765 45.537H13.2813C13.0841 45.537 12.8869 45.4828 12.7169 45.3878C12.1728 45.0757 11.9824 44.3837 12.2952 43.8409L36.6823 1.69613C36.7843 1.52654 36.9271 1.38405 37.0971 1.28227C37.6412 0.970197 38.3348 1.1534 38.6477 1.69613L60.3009 39.0986C60.4981 39.4446 60.8722 39.6617 61.2801 39.6617H68.3528C68.5501 39.6617 68.7472 39.6143 68.9173 39.5125C69.4613 39.2004 69.6517 38.5084 69.3388 37.9656L48.5086 1.69613C48.4133 1.52654 48.359 1.32985 48.359 1.13304C48.359 0.508886 48.869 0.000118346 49.4947 0H53.5002Z" fill="white"/>
<path fill-rule="evenodd" clip-rule="evenodd" d="M51.1742 54.8025V63H53.8611V54.8025H56.457V52.3735H48.5631V54.8025H51.1742Z" fill="white"/>
<path fill-rule="evenodd" clip-rule="evenodd" d="M37.5779 59.3428H35.1482L36.3479 56.5487L37.5779 59.3428ZM39.0803 62.9999H41.737V62.6052L36.9399 52.2367H35.7709L30.989 62.6052V62.9999H33.6456L34.2681 61.6639H38.4579L39.0803 62.9999Z" fill="white"/>
<path fill-rule="evenodd" clip-rule="evenodd" d="M20.3068 52.3735H17.5742V63H24.1627V60.5559H20.3068V52.3735Z" fill="white"/>
<path fill-rule="evenodd" clip-rule="evenodd" d="M6.58931 59.3426H4.15961L5.35928 56.5484L6.58931 59.3426ZM8.09131 62.9996H10.7479V62.6049L5.95084 52.2365H4.78192L0 62.6049V62.9996H2.65662L3.27903 61.6637H7.46891L8.09131 62.9996Z" fill="white"/>
<path d="M69.9584 55.7278C69.9584 56.2035 69.878 56.6698 69.717 57.1266C69.5561 57.5785 69.3262 57.9592 69.0273 58.2684C68.6181 58.6871 68.1606 59.0035 67.6548 59.2176C67.1536 59.4317 66.5282 59.5387 65.7787 59.5387H64.1303V63H61.4818V52.3735H65.8408C66.4937 52.3735 67.0432 52.433 67.4892 52.552C67.9398 52.6661 68.3376 52.8398 68.6824 53.0729C69.0963 53.3536 69.4112 53.7129 69.6274 54.1506C69.8481 54.5883 69.9584 55.114 69.9584 55.7278ZM67.2202 55.792C67.2202 55.4923 67.1421 55.2353 66.9857 55.0212C66.8294 54.8024 66.6478 54.6501 66.4409 54.5645C66.165 54.4503 65.896 54.3885 65.6339 54.3789C65.3718 54.3647 65.0223 54.3575 64.5855 54.3575H64.1303V57.5405H64.889C65.3396 57.5405 65.7098 57.5119 65.9994 57.4548C66.2937 57.3977 66.5397 57.2836 66.7374 57.1123C66.9076 56.96 67.0294 56.7792 67.103 56.5699C67.1812 56.3558 67.2202 56.0965 67.2202 55.792Z" fill="white"/>
<path d="M81.3319 63H78.5937L77.8833 60.8519H74.076L73.3656 63H70.6964L74.4899 52.3735H77.5384L81.3319 63ZM77.2418 58.9036L75.9797 55.0926L74.7175 58.9036H77.2418Z" fill="white"/>
<path d="M91.8432 52.3735L88.0566 58.8893V63H85.4081V59.0178L81.5595 52.3735H84.5667L86.7876 56.4843L88.9326 52.3735H91.8432Z" fill="white"/>
</svg>
