<svg width="28" height="28" viewBox="0 0 28 28" fill="none" xmlns="http://www.w3.org/2000/svg">
<path d="M14 28C6.2678 28 0 21.7322 0 14C0 6.2678 6.2678 0 14 0C21.7322 0 28 6.2678 28 14C28 21.7322 21.7322 28 14 28ZM12.0708 8.98099C11.9865 8.92478 11.8886 8.89247 11.7875 8.8875C11.6863 8.88254 11.5857 8.9051 11.4963 8.9528C11.407 9.0005 11.3322 9.07153 11.28 9.15835C11.2278 9.24516 11.2002 9.3445 11.2 9.44579V18.5542C11.2002 18.6555 11.2278 18.7548 11.28 18.8416C11.3322 18.9284 11.407 18.9995 11.4963 19.0472C11.5857 19.0949 11.6863 19.1174 11.7875 19.1125C11.8886 19.1075 11.9865 19.0752 12.0708 19.019L18.9014 14.4662C18.9782 14.4151 19.0412 14.3458 19.0848 14.2644C19.1284 14.1831 19.1512 14.0923 19.1512 14C19.1512 13.9077 19.1284 13.8169 19.0848 13.7356C19.0412 13.6542 18.9782 13.5849 18.9014 13.5338L12.0694 8.98099H12.0708Z" fill="#A90836"/>
</svg>
