<svg width="178" height="132" viewBox="0 0 178 132" fill="none" xmlns="http://www.w3.org/2000/svg">
<path d="M0.612482 128.769C-0.0566294 129.261 -0.199584 130.203 0.293183 130.872C0.785951 131.541 1.72784 131.684 2.39695 131.192L0.612482 128.769ZM178 0L160.733 1.92756L171.036 15.9171L178 0ZM4.84827 129.386C5.51739 128.894 5.66034 127.952 5.16757 127.283C4.67481 126.613 3.73292 126.471 3.06381 126.963L4.84827 129.386ZM7.96645 123.353C7.29734 123.845 7.15439 124.787 7.64715 125.456C8.13992 126.126 9.08181 126.269 9.75092 125.776L7.96645 123.353ZM14.6536 122.165C15.3227 121.672 15.4656 120.731 14.9729 120.061C14.4801 119.392 13.5382 119.249 12.8691 119.742L14.6536 122.165ZM17.7717 116.132C17.1026 116.624 16.9597 117.566 17.4524 118.235C17.9452 118.904 18.8871 119.047 19.5562 118.555L17.7717 116.132ZM24.4589 114.944C25.128 114.451 25.2709 113.509 24.7782 112.84C24.2854 112.171 23.3435 112.028 22.6744 112.521L24.4589 114.944ZM27.577 108.91C26.9079 109.403 26.765 110.345 27.2577 111.014C27.7505 111.683 28.6924 111.826 29.3615 111.334L27.577 108.91ZM34.2642 107.723C34.9333 107.23 35.0762 106.288 34.5835 105.619C34.0907 104.95 33.1488 104.807 32.4797 105.3L34.2642 107.723ZM37.3823 101.689C36.7132 102.182 36.5703 103.124 37.063 103.793C37.5558 104.462 38.4977 104.605 39.1668 104.112L37.3823 101.689ZM44.0694 100.502C44.7386 100.009 44.8815 99.0672 44.3887 98.3981C43.896 97.729 42.9541 97.5861 42.285 98.0788L44.0694 100.502ZM47.1876 94.4683C46.5185 94.961 46.3756 95.9029 46.8683 96.572C47.3611 97.2411 48.303 97.3841 48.9721 96.8913L47.1876 94.4683ZM53.8747 93.2808C54.5439 92.788 54.6868 91.8461 54.194 91.177C53.7013 90.5079 52.7594 90.3649 52.0903 90.8577L53.8747 93.2808ZM56.9929 87.2471C56.3238 87.7399 56.1809 88.6818 56.6736 89.3509C57.1664 90.02 58.1083 90.163 58.7774 89.6702L56.9929 87.2471ZM63.68 86.0596C64.3492 85.5669 64.4921 84.625 63.9993 83.9559C63.5066 83.2868 62.5647 83.1438 61.8956 83.6366L63.68 86.0596ZM66.7982 80.026C66.1291 80.5188 65.9861 81.4607 66.4789 82.1298C66.9717 82.7989 67.9136 82.9419 68.5827 82.4491L66.7982 80.026ZM73.4853 78.8385C74.1544 78.3458 74.2974 77.4039 73.8046 76.7348C73.3119 76.0657 72.37 75.9227 71.7009 76.4155L73.4853 78.8385ZM76.6035 72.8049C75.9344 73.2977 75.7914 74.2396 76.2842 74.9087C76.777 75.5778 77.7189 75.7207 78.388 75.228L76.6035 72.8049ZM83.2906 71.6174C83.9597 71.1247 84.1027 70.1828 83.6099 69.5137C83.1172 68.8445 82.1753 68.7016 81.5062 69.1944L83.2906 71.6174ZM86.4088 65.5838C85.7397 66.0766 85.5967 67.0184 86.0895 67.6876C86.5823 68.3567 87.5242 68.4996 88.1933 68.0069L86.4088 65.5838ZM93.0959 64.3963C93.765 63.9035 93.908 62.9616 93.4152 62.2925C92.9224 61.6234 91.9806 61.4805 91.3114 61.9732L93.0959 64.3963ZM96.2141 58.3627C95.545 58.8554 95.402 59.7973 95.8948 60.4664C96.3876 61.1356 97.3295 61.2785 97.9986 60.7857L96.2141 58.3627ZM102.901 57.1752C103.57 56.6824 103.713 55.7405 103.221 55.0714C102.728 54.4023 101.786 54.2593 101.117 54.7521L102.901 57.1752ZM106.019 51.1416C105.35 51.6343 105.207 52.5762 105.7 53.2453C106.193 53.9144 107.135 54.0574 107.804 53.5646L106.019 51.1416ZM112.707 49.9541C113.376 49.4613 113.519 48.5194 113.026 47.8503C112.533 47.1812 111.591 47.0382 110.922 47.531L112.707 49.9541ZM115.825 43.9205C115.156 44.4132 115.013 45.3551 115.505 46.0242C115.998 46.6933 116.94 46.8363 117.609 46.3435L115.825 43.9205ZM122.512 42.733C123.181 42.2402 123.324 41.2983 122.831 40.6292C122.338 39.9601 121.396 39.8171 120.727 40.3099L122.512 42.733ZM125.63 36.6993C124.961 37.1921 124.818 38.134 125.311 38.8031C125.803 39.4722 126.745 39.6152 127.414 39.1224L125.63 36.6993ZM132.317 35.5119C132.986 35.0191 133.129 34.0772 132.636 33.4081C132.144 32.739 131.202 32.596 130.533 33.0888L132.317 35.5119ZM135.435 29.4782C134.766 29.971 134.623 30.9129 135.116 31.582C135.609 32.2511 136.551 32.3941 137.22 31.9013L135.435 29.4782ZM142.122 28.2907C142.791 27.798 142.934 26.8561 142.442 26.187C141.949 25.5179 141.007 25.3749 140.338 25.8677L142.122 28.2907ZM145.241 22.2571C144.571 22.7499 144.428 23.6918 144.921 24.3609C145.414 25.03 146.356 25.173 147.025 24.6802L145.241 22.2571ZM151.928 21.0696C152.597 20.5769 152.74 19.635 152.247 18.9659C151.754 18.2968 150.812 18.1538 150.143 18.6466L151.928 21.0696ZM155.046 15.036C154.377 15.5288 154.234 16.4707 154.726 17.1398C155.219 17.8089 156.161 17.9519 156.83 17.4591L155.046 15.036ZM161.733 13.8485C162.402 13.3558 162.545 12.4139 162.052 11.7448C161.559 11.0757 160.618 10.9327 159.948 11.4255L161.733 13.8485ZM164.851 7.81491C164.182 8.30768 164.039 9.24957 164.532 9.91868C165.025 10.5878 165.966 10.7307 166.636 10.238L164.851 7.81491ZM171.538 6.62742C172.207 6.13465 172.35 5.19276 171.857 4.52365C171.365 3.85454 170.423 3.71159 169.754 4.20435L171.538 6.62742ZM174.656 0.593801C173.987 1.08657 173.844 2.02846 174.337 2.69757C174.83 3.36668 175.772 3.50964 176.441 3.01687L174.656 0.593801ZM2.39695 131.192L4.84827 129.386L3.06381 126.963L0.612482 128.769L2.39695 131.192ZM9.75092 125.776L14.6536 122.165L12.8691 119.742L7.96645 123.353L9.75092 125.776ZM19.5562 118.555L24.4589 114.944L22.6744 112.521L17.7717 116.132L19.5562 118.555ZM29.3615 111.334L34.2642 107.723L32.4797 105.3L27.577 108.91L29.3615 111.334ZM39.1668 104.112L44.0694 100.502L42.285 98.0788L37.3823 101.689L39.1668 104.112ZM48.9721 96.8913L53.8747 93.2808L52.0903 90.8577L47.1876 94.4683L48.9721 96.8913ZM58.7774 89.6702L63.68 86.0596L61.8956 83.6366L56.9929 87.2471L58.7774 89.6702ZM68.5827 82.4491L73.4853 78.8385L71.7009 76.4155L66.7982 80.026L68.5827 82.4491ZM78.388 75.228L83.2906 71.6174L81.5062 69.1944L76.6035 72.8049L78.388 75.228ZM88.1933 68.0069L93.0959 64.3963L91.3114 61.9732L86.4088 65.5838L88.1933 68.0069ZM97.9986 60.7857L102.901 57.1752L101.117 54.7521L96.2141 58.3627L97.9986 60.7857ZM107.804 53.5646L112.707 49.9541L110.922 47.531L106.019 51.1416L107.804 53.5646ZM117.609 46.3435L122.512 42.733L120.727 40.3099L115.825 43.9205L117.609 46.3435ZM127.414 39.1224L132.317 35.5119L130.533 33.0888L125.63 36.6993L127.414 39.1224ZM137.22 31.9013L142.122 28.2907L140.338 25.8677L135.435 29.4782L137.22 31.9013ZM147.025 24.6802L151.928 21.0696L150.143 18.6466L145.241 22.2571L147.025 24.6802ZM156.83 17.4591L161.733 13.8485L159.948 11.4255L155.046 15.036L156.83 17.4591ZM166.636 10.238L171.538 6.62742L169.754 4.20435L164.851 7.81491L166.636 10.238Z" fill="#A90836"/>
</svg>
